<?xml version="1.0" standalone="no"?>
<!DOCTYPE svg PUBLIC "-//W3C//DTD SVG 20010904//EN"
 "http://www.w3.org/TR/2001/REC-SVG-20010904/DTD/svg10.dtd">
<svg version="1.0" xmlns="http://www.w3.org/2000/svg"
 width="1280.000000pt" height="640.000000pt" viewBox="0 0 1280.000000 640.000000"
 preserveAspectRatio="xMidYMid meet">
<g transform="translate(0.000000,640.000000) scale(0.100000,-0.100000)"
fill="#000000" stroke="none">
<path d="M11827 5173 c-4 -3 -7 -19 -7 -35 0 -34 -2 -35 -103 -43 -75 -6 -77
-5 -89 20 -15 34 -26 32 -24 -5 1 -28 -4 -32 -57 -54 -375 -154 -621 -606
-796 -1461 -36 -171 -50 -195 -121 -195 -33 0 -311 27 -625 60 -1390 148
-2867 260 -3939 300 -137 5 -253 13 -257 17 -4 4 -13 125 -19 268 -14 330 -16
345 -40 345 -19 0 -20 -12 -22 -307 l-3 -308 -225 4 c-124 2 -232 7 -240 11
-9 5 -30 2 -50 -7 -19 -8 -59 -24 -89 -34 -48 -17 -56 -17 -70 -5 -27 24 -96
175 -86 185 6 4 98 45 205 90 107 46 200 87 205 93 13 13 -26 3 -80 -22 -111
-51 -329 -140 -341 -140 -7 0 -20 14 -29 30 -20 38 -50 42 -41 5 5 -21 3 -25
-15 -25 -13 0 -38 -17 -59 -40 -24 -26 -62 -50 -116 -73 -80 -34 -103 -60 -70
-79 9 -5 16 -22 16 -38 l0 -30 -195 0 -195 0 0 40 c0 36 -3 40 -24 40 -17 0
-30 10 -44 35 -35 58 -105 58 -134 -2 l-13 -28 -350 3 c-193 1 -580 5 -860 8
l-510 7 3 -82 c4 -77 3 -81 -19 -89 -36 -13 -477 -65 -494 -58 -16 6 -22 100
-7 124 5 7 46 21 93 31 111 25 71 26 -67 1 -233 -42 -640 -155 -701 -195 -21
-14 -23 -23 -23 -88 l0 -73 -137 -56 c-76 -31 -144 -58 -152 -60 -9 -2 -17 10
-23 32 -17 68 -40 120 -53 120 -16 0 -29 -35 -59 -150 -19 -71 -26 -86 -44
-88 -18 -3 -22 3 -28 46 -9 71 -16 79 -49 58 -23 -15 -25 -21 -20 -59 l6 -42
-62 -45 c-74 -54 -106 -94 -125 -156 -20 -68 -16 -99 5 -37 10 29 30 68 45 88
29 38 133 121 141 113 6 -6 35 -152 35 -176 0 -23 -35 -43 -81 -46 -44 -4 -79
-29 -79 -58 0 -23 -46 -71 -63 -65 -6 2 -16 -6 -22 -17 -11 -21 -251 -195
-271 -196 -13 0 -49 -38 -42 -45 2 -3 73 42 156 100 83 58 158 105 166 105 22
0 96 -97 96 -126 0 -37 80 -116 154 -153 35 -17 69 -31 75 -31 6 0 16 -11 22
-23 9 -19 7 -32 -10 -63 -19 -36 -21 -55 -21 -250 0 -229 20 -517 49 -719 17
-116 25 -145 35 -134 4 4 36 241 62 454 8 66 17 206 21 310 l6 190 -27 49
c-18 34 -26 64 -26 97 0 48 1 49 30 49 16 0 35 -7 42 -15 49 -59 117 -97 266
-149 112 -39 169 -45 205 -21 18 12 39 13 111 5 49 -5 91 -11 93 -14 3 -2 -18
-16 -47 -31 -32 -16 -58 -38 -68 -58 -9 -17 -29 -43 -44 -58 -32 -31 -34 -39
-13 -39 9 0 25 -23 39 -53 14 -33 37 -63 57 -78 l34 -24 1385 0 1385 0 258 40
c284 43 277 44 277 -22 0 -30 3 -33 33 -33 32 0 32 0 32 49 0 68 20 88 88 87
l52 -1 3 -66 c3 -63 4 -66 26 -62 13 3 27 0 30 -6 4 -6 31 -11 60 -11 52 0 54
1 60 31 6 32 9 33 61 14 11 -4 3 5 -17 19 l-38 27 0 83 c0 94 2 96 73 96 66 0
68 -4 65 -121 l-3 -104 -30 -5 c-77 -14 33 -19 417 -20 592 -1 845 1 831 7
-10 3 -13 45 -13 159 0 85 3 154 6 154 17 0 46 -24 58 -49 20 -38 68 -58 103
-42 18 8 29 9 37 1 5 -5 18 -10 28 -10 9 0 101 -40 204 -90 103 -50 189 -90
192 -90 3 0 -3 9 -13 20 -10 11 -24 20 -32 20 -21 0 -333 159 -333 170 0 6 -9
10 -19 10 -12 0 -26 15 -40 42 -11 23 -19 43 -17 45 1 2 32 4 67 5 52 3 63 0
61 -12 -2 -8 18 6 45 32 l48 47 210 13 c211 13 364 15 485 7 36 -2 115 0 176
5 109 8 112 7 119 -13 3 -12 11 -19 16 -15 5 3 7 9 4 14 -10 17 30 28 130 34
55 4 124 9 153 13 48 5 54 4 59 -16 7 -27 23 -28 23 -1 0 24 6 25 175 39 167
14 160 15 173 -11 8 -18 11 -19 11 -6 1 10 11 23 23 29 19 10 24 9 36 -10 16
-23 34 -29 26 -7 -9 23 12 28 145 41 121 11 160 7 145 -16 -3 -5 2 -9 10 -9 9
0 16 8 16 19 0 21 24 27 163 37 84 7 87 6 87 -15 0 -27 13 -27 25 1 11 25 26
29 205 47 106 11 480 52 645 71 116 14 833 104 995 126 105 14 129 21 148 41
13 12 26 23 31 23 4 0 22 -18 40 -40 94 -118 251 -103 319 31 26 51 36 57 61
35 16 -14 32 -13 192 14 372 65 684 151 727 201 9 11 30 19 47 19 63 0 63 17
0 46 -159 70 -568 189 -807 234 -39 8 -58 16 -58 26 0 19 7 18 181 -16 l151
-30 195 107 195 108 -6 100 c-20 296 -99 712 -178 935 l-23 65 -53 3 c-60 3
-68 25 -11 30 19 2 37 7 41 10 9 9 -80 195 -123 259 -47 69 -134 158 -189 193
-26 17 -80 39 -121 49 -69 17 -74 21 -77 47 -4 32 -15 48 -25 37z m-6847
-1373 c17 -33 30 -64 30 -69 0 -8 -59 -31 -81 -31 -11 0 -17 123 -8 148 12 31
24 21 59 -48z m-81 25 c6 -7 -12 -26 -71 -76 -54 -45 -65 -50 -102 -47 -51 4
-61 30 -19 50 16 7 29 23 31 36 6 38 40 54 102 47 30 -4 57 -8 59 -10z m-181
-37 c-6 -18 -28 -21 -28 -4 0 9 7 16 16 16 9 0 14 -5 12 -12z m-3140 -196 c4
-53 -10 -72 -53 -72 -36 0 -45 13 -45 60 0 52 9 61 54 58 41 -3 41 -3 44 -46z
m911 -76 c8 -9 11 -55 9 -137 l-3 -124 -55 0 -55 0 -3 124 c-1 69 0 131 2 138
7 18 90 17 105 -1z m-181 -148 l-3 -133 -90 -6 c-49 -4 -128 -8 -175 -10 l-85
-4 -3 128 c-3 126 -2 127 20 128 13 0 70 6 128 14 58 7 129 13 158 14 l53 1
-3 -132z m-403 -43 l0 -130 -112 -3 -113 -3 0 120 c0 139 -12 125 120 140 114
13 105 24 105 -124z m-325 36 c0 -71 -2 -80 -20 -86 -17 -5 -20 -15 -20 -64
l0 -58 -112 -6 c-62 -4 -150 -7 -195 -7 l-83 0 0 99 0 99 73 26 c39 14 100 32
134 40 62 14 62 14 78 -11 13 -19 20 -22 28 -14 7 7 12 19 12 29 0 16 31 28
83 31 21 1 22 -2 22 -78z m4001 -2 c16 -16 19 -30 17 -72 -2 -29 -7 -51 -13
-50 -5 1 -28 29 -49 63 -32 50 -36 64 -25 71 23 14 48 10 70 -12z m613 11 c26
-9 26 -11 26 -119 0 -99 -2 -111 -19 -121 -11 -5 -81 -10 -156 -10 -75 0 -145
5 -156 10 -17 10 -19 22 -19 121 0 104 1 110 23 119 30 12 269 12 301 0z
m-2980 -16 c19 -19 21 -48 4 -61 -30 -22 -349 -155 -356 -149 -13 14 -8 192 7
209 20 24 321 25 345 1z m-2115 -166 c-2 -194 -1 -190 -79 -205 -36 -7 -93
-12 -126 -13 -71 0 -74 3 -75 88 0 31 -4 80 -9 107 -7 41 -5 52 7 62 19 15
137 61 202 78 86 24 81 32 80 -117z m-458 -89 c-8 -21 -10 -22 -16 -6 -10 23
2 54 16 40 6 -6 6 -18 0 -34z m924 6 c0 -19 -7 -20 -95 -21 -65 -1 -108 -7
-135 -18 -36 -16 -41 -16 -51 -1 -11 15 -15 15 -43 1 -16 -9 -44 -16 -61 -16
-27 0 -30 3 -30 30 0 28 2 30 43 31 23 1 94 5 157 9 182 11 215 9 215 -15z
m-710 -191 c0 -12 -8 -20 -22 -22 -26 -4 -28 1 -12 29 13 24 34 20 34 -7z
m-254 -57 c8 -29 -1 -38 -63 -76 -21 -12 -51 -39 -68 -59 l-30 -36 -30 29
c-16 16 -30 34 -30 42 0 20 41 37 84 34 42 -2 86 28 86 59 0 19 20 42 34 37 5
-2 13 -15 17 -30z m74 13 c3 -5 1 -10 -4 -10 -6 0 -11 5 -11 10 0 6 2 10 4 10
3 0 8 -4 11 -10z m4111 -735 c8 -30 -2 -75 -17 -75 -17 0 -330 70 -340 76 -29
17 21 24 176 24 l175 0 6 -25z m147 -13 c15 -15 27 -38 27 -49 0 -16 5 -20 20
-16 16 4 20 0 20 -19 0 -23 -3 -25 -59 -25 -53 0 -60 2 -75 27 -16 29 -21 66
-10 94 10 25 48 19 77 -12z m661 -88 c10 -25 7 -59 -6 -72 -7 -7 -38 -12 -70
-12 -52 0 -60 3 -69 24 -7 14 -9 36 -5 50 6 25 10 26 75 26 54 0 70 -4 75 -16z"/>
<path d="M11410 5110 c0 -5 7 -10 15 -10 8 0 15 5 15 10 0 6 -7 10 -15 10 -8
0 -15 -4 -15 -10z"/>
<path d="M5925 4420 c-4 -6 5 -10 19 -10 14 0 26 5 26 10 0 6 -9 10 -19 10
-11 0 -23 -4 -26 -10z"/>
<path d="M2248 3783 c6 -2 18 -2 25 0 6 3 1 5 -13 5 -14 0 -19 -2 -12 -5z"/>
<path d="M1998 3753 c7 -3 16 -2 19 1 4 3 -2 6 -13 5 -11 0 -14 -3 -6 -6z"/>
</g>
</svg>
